<svg width="14" height="14" viewBox="0 0 14 14" fill="none" xmlns="http://www.w3.org/2000/svg">
<g clip-path="url(#clip0_1222_39652)">
<path d="M12.3196 6.53564C12.9581 8.08049 13.5175 10.0811 13.5 11.1785C13.4762 12.6588 12.5721 13.4999 11.6435 13.4999C10.8011 13.1036 9.78526 11.1785 8.85786 11.1785H5.14214C4.21474 11.1785 3.19893 13.1036 2.35645 13.4999C1.42788 13.4999 0.52376 12.6588 0.500038 11.1785C0.482451 10.0811 1.0419 8.08049 1.6804 6.53564" stroke="black" stroke-linecap="round" stroke-linejoin="round"/>
<path d="M3.28528 1.42856V4.21426C3.28528 4.72709 3.70101 5.14282 4.21384 5.14282H9.78523C10.2981 5.14282 10.7138 4.72709 10.7138 4.21426V1.42856L8.85664 2.35713L6.99951 0.5L5.14238 2.35713L3.28528 1.42856Z" stroke="black" stroke-linecap="round" stroke-linejoin="round"/>
<path d="M4.5 9.25C5.05228 9.25 5.5 8.80228 5.5 8.25C5.5 7.69772 5.05228 7.25 4.5 7.25C3.94772 7.25 3.5 7.69772 3.5 8.25C3.5 8.80228 3.94772 9.25 4.5 9.25Z" stroke="black" stroke-linecap="round" stroke-linejoin="round"/>
<path d="M9.5 9.25C10.0523 9.25 10.5 8.80228 10.5 8.25C10.5 7.69772 10.0523 7.25 9.5 7.25C8.94772 7.25 8.5 7.69772 8.5 8.25C8.5 8.80228 8.94772 9.25 9.5 9.25Z" stroke="black" stroke-linecap="round" stroke-linejoin="round"/>
</g>
<defs>
<clipPath id="clip0_1222_39652">
<rect width="14" height="14" fill="white"/>
</clipPath>
</defs>
</svg>
